REM DIRINDEX 1\6,1\2\7,1\2\8,1\2\9,1\3\10,1\3\11,1\4\12,1\4\13,1\4\14,1\5\15,1\5\16,1\5\17
REM DIRNAME folder01,folder02,folder03,folder04,folder05,folder06,folder07,folder08,folder09,folder10,folder11,folder12,folder13,folder14,folder15,folder16,folder17
TITLE ""
FILE "3Q_j_1061-1076.mp3" MP3
  TRACK 01 AUDIO
    TITLE "12:cjc041_0482"
    INDEX 01 00:00:00
  TRACK 02 AUDIO
    TITLE "0:"
    INDEX 01 00:01:71
  TRACK 03 AUDIO
    TITLE "13:cjc041_0483"
    INDEX 01 00:02:49
  TRACK 04 AUDIO
    TITLE "0:"
    INDEX 01 00:04:72
  TRACK 05 AUDIO
    TITLE "14:cjc041_0484"
    INDEX 01 00:05:50
  TRACK 06 AUDIO
    TITLE "0:"
    INDEX 01 00:09:18
  TRACK 07 AUDIO
    TITLE "12:cjc041_0485"
    INDEX 01 00:09:71
  TRACK 08 AUDIO
    TITLE "0:"
    INDEX 01 00:11:46
  TRACK 09 AUDIO
    TITLE "13:cjc041_0486"
    INDEX 01 00:12:24
  TRACK 10 AUDIO
    TITLE "0:"
    INDEX 01 00:13:45
  TRACK 11 AUDIO
    TITLE "14:cjc041_0487"
    INDEX 01 00:14:21
  TRACK 12 AUDIO
    TITLE "0:"
    INDEX 01 00:18:33
  TRACK 13 AUDIO
    TITLE "12:cjc041_0488"
    INDEX 01 00:19:16
  TRACK 14 AUDIO
    TITLE "0:"
    INDEX 01 00:21:00
  TRACK 15 AUDIO
    TITLE "13:cjc041_0489"
    INDEX 01 00:21:53
  TRACK 16 AUDIO
    TITLE "0:"
    INDEX 01 00:23:10
  TRACK 17 AUDIO
    TITLE "14:cjc041_0490"
    INDEX 01 00:23:59
  TRACK 18 AUDIO
    TITLE "0:"
    INDEX 01 00:27:59
  TRACK 19 AUDIO
    TITLE "12:cjc041_0491"
    INDEX 01 00:28:39
  TRACK 20 AUDIO
    TITLE "0:"
    INDEX 01 00:29:62
  TRACK 21 AUDIO
    TITLE "13:cjc041_0492"
    INDEX 01 00:30:40
  TRACK 22 AUDIO
    TITLE "0:"
    INDEX 01 00:32:33
  TRACK 23 AUDIO
    TITLE "14:cjc041_0493"
    INDEX 01 00:33:05
  TRACK 24 AUDIO
    TITLE "0:"
    INDEX 01 00:36:25
  TRACK 25 AUDIO
    TITLE "12:cjc041_0494"
    INDEX 01 00:37:05
  TRACK 26 AUDIO
    TITLE "0:"
    INDEX 01 00:39:11
  TRACK 27 AUDIO
    TITLE "13:cjc041_0495"
    INDEX 01 00:39:66
  TRACK 28 AUDIO
    TITLE "0:"
    INDEX 01 00:42:12
  TRACK 29 AUDIO
    TITLE "14:cjc041_0496"
    INDEX 01 00:42:59
  TRACK 30 AUDIO
    TITLE "0:"
    INDEX 01 00:45:49
  TRACK 31 AUDIO
    TITLE "12:cjc041_0497"
    INDEX 01 00:46:25
  TRACK 32 AUDIO
    TITLE "0:"
    INDEX 01 00:47:70
  TRACK 33 AUDIO
    TITLE "13:cjc041_0498"
    INDEX 01 00:48:55
  TRACK 34 AUDIO
    TITLE "0:"
    INDEX 01 00:50:15
  TRACK 35 AUDIO
    TITLE "14:cjc041_0499"
    INDEX 01 00:50:70
  TRACK 36 AUDIO
    TITLE "0:"
    INDEX 01 00:54:25
  TRACK 37 AUDIO
    TITLE "12:cjc041_0500"
    INDEX 01 00:55:04
  TRACK 38 AUDIO
    TITLE "0:"
    INDEX 01 00:56:71
  TRACK 39 AUDIO
    TITLE "13:cjc041_0501"
    INDEX 01 00:57:45
  TRACK 40 AUDIO
    TITLE "0:"
    INDEX 01 00:59:47
  TRACK 41 AUDIO
    TITLE "14:cjc041_0502"
    INDEX 01 01:00:23
  TRACK 42 AUDIO
    TITLE "0:"
    INDEX 01 01:04:58
  TRACK 43 AUDIO
    TITLE "12:cjc041_0503"
    INDEX 01 01:05:38
  TRACK 44 AUDIO
    TITLE "0:"
    INDEX 01 01:07:17
  TRACK 45 AUDIO
    TITLE "13:cjc041_0504"
    INDEX 01 01:07:68
  TRACK 46 AUDIO
    TITLE "0:"
    INDEX 01 01:09:46
  TRACK 47 AUDIO
    TITLE "14:cjc041_0505"
    INDEX 01 01:10:26
  TRACK 48 AUDIO
    TITLE "0:"
    INDEX 01 01:14:70
  TRACK 49 AUDIO
    TITLE "12:cjc041_0506"
    INDEX 01 01:15:44
  TRACK 50 AUDIO
    TITLE "0:"
    INDEX 01 01:16:73
  TRACK 51 AUDIO
    TITLE "13:cjc041_0507"
    INDEX 01 01:17:51
  TRACK 52 AUDIO
    TITLE "0:"
    INDEX 01 01:19:01
  TRACK 53 AUDIO
    TITLE "14:cjc041_0508"
    INDEX 01 01:19:58
  TRACK 54 AUDIO
    TITLE "0:"
    INDEX 01 01:22:46
  TRACK 55 AUDIO
    TITLE "12:cjc041_0509"
    INDEX 01 01:23:28
  TRACK 56 AUDIO
    TITLE "0:"
    INDEX 01 01:24:57
  TRACK 57 AUDIO
    TITLE "13:cjc041_0510"
    INDEX 01 01:25:39
  TRACK 58 AUDIO
    TITLE "0:"
    INDEX 01 01:27:12
  TRACK 59 AUDIO
    TITLE "14:cjc041_0511"
    INDEX 01 01:27:67
  TRACK 60 AUDIO
    TITLE "0:"
    INDEX 01 01:31:18
  TRACK 61 AUDIO
    TITLE "12:cjc041_0512"
    INDEX 01 01:31:71
  TRACK 62 AUDIO
    TITLE "0:"
    INDEX 01 01:33:46
  TRACK 63 AUDIO
    TITLE "13:cjc041_0513"
    INDEX 01 01:34:22
  TRACK 64 AUDIO
    TITLE "0:"
    INDEX 01 01:36:21
  TRACK 65 AUDIO
    TITLE "14:cjc041_0514"
    INDEX 01 01:37:01
  TRACK 66 AUDIO
    TITLE "0:"
    INDEX 01 01:41:38
  TRACK 67 AUDIO
    TITLE "12:cjc041_0515"
    INDEX 01 01:42:20
  TRACK 68 AUDIO
    TITLE "0:"
    INDEX 01 01:44:03
  TRACK 69 AUDIO
    TITLE "13:cjc041_0516"
    INDEX 01 01:44:62
  TRACK 70 AUDIO
    TITLE "0:"
    INDEX 01 01:46:29
  TRACK 71 AUDIO
    TITLE "14:cjc041_0517"
    INDEX 01 01:47:09
  TRACK 72 AUDIO
    TITLE "0:"
    INDEX 01 01:50:43
  TRACK 73 AUDIO
    TITLE "12:cjc041_0518"
    INDEX 01 01:51:27
  TRACK 74 AUDIO
    TITLE "0:"
    INDEX 01 01:53:59
  TRACK 75 AUDIO
    TITLE "13:cjc041_0519"
    INDEX 01 01:54:41
  TRACK 76 AUDIO
    TITLE "0:"
    INDEX 01 01:57:47
  TRACK 77 AUDIO
    TITLE "14:cjc041_0520"
    INDEX 01 01:58:30
  TRACK 78 AUDIO
    TITLE "0:"
    INDEX 01 02:01:58
  TRACK 79 AUDIO
    TITLE "12:cjc041_0521"
    INDEX 01 02:02:40
  TRACK 80 AUDIO
    TITLE "0:"
    INDEX 01 02:04:51
  TRACK 81 AUDIO
    TITLE "13:cjc041_0522"
    INDEX 01 02:05:33
  TRACK 82 AUDIO
    TITLE "0:"
    INDEX 01 02:07:69
  TRACK 83 AUDIO
    TITLE "14:cjc041_0523"
    INDEX 01 02:08:48
  TRACK 84 AUDIO
    TITLE "0:"
    INDEX 01 02:12:11
  TRACK 85 AUDIO
    TITLE "12:cjc041_0524"
    INDEX 01 02:12:64
  TRACK 86 AUDIO
    TITLE "0:"
    INDEX 01 02:14:30
  TRACK 87 AUDIO
    TITLE "13:cjc041_0525"
    INDEX 01 02:15:11
  TRACK 88 AUDIO
    TITLE "0:"
    INDEX 01 02:16:32
  TRACK 89 AUDIO
    TITLE "14:cjc041_0526"
    INDEX 01 02:17:08
  TRACK 90 AUDIO
    TITLE "0:"
    INDEX 01 02:21:32
  TRACK 91 AUDIO
    TITLE "12:cjc041_0527"
    INDEX 01 02:22:13
  TRACK 92 AUDIO
    TITLE "0:"
    INDEX 01 02:23:60
  TRACK 93 AUDIO
    TITLE "13:cjc041_0528"
    INDEX 01 02:24:40
  TRACK 94 AUDIO
    TITLE "0:"
    INDEX 01 02:25:51
  TRACK 95 AUDIO
    TITLE "14:cjc041_0529"
    INDEX 01 02:26:33
  TRACK 96 AUDIO
    TITLE "0:"
    INDEX 01 02:30:29
